<svg version="1.1" id="Layer_1" xmlns="http://www.w3.org/2000/svg" xmlns:xlink="http://www.w3.org/1999/xlink" x="0px" y="0px"
	 width="100%" viewBox="0 0 300 300" enable-background="new 0 0 300 300" xml:space="preserve">
<path fill="#000000" opacity="1.000000" stroke="none" 
	d="
M196.000000,301.000000 
	C130.666672,301.000000 65.833359,301.000000 1.000026,301.000000 
	C1.000017,201.000031 1.000017,101.000061 1.000009,1.000066 
	C100.999947,1.000044 200.999893,1.000044 300.999878,1.000022 
	C300.999939,100.999939 300.999939,200.999878 300.999969,300.999908 
	C266.166656,301.000000 231.333328,301.000000 196.000000,301.000000 
M108.034210,21.363121 
	C103.792480,12.374946 99.549599,8.873089 93.681648,11.343814 
	C87.403221,13.987374 81.536316,17.826885 75.924034,21.763487 
	C71.576317,24.813084 70.936584,29.524168 73.155853,34.354145 
	C74.563271,37.417217 76.140648,40.418869 77.858330,43.319859 
	C85.721138,56.599396 93.713150,69.802521 101.558929,83.092026 
	C111.515656,99.957108 121.176483,117.000809 131.374939,133.717331 
	C135.518692,140.509430 136.915680,152.330078 131.338287,160.320938 
	C126.471161,167.294189 122.357727,174.798752 118.000275,182.121490 
	C106.092628,202.132446 94.013275,222.046310 82.455795,242.258163 
	C77.547646,250.841599 73.438118,259.932159 69.596642,269.057861 
	C66.908905,275.442780 70.232101,280.563812 76.665497,283.367767 
	C82.614761,285.960663 88.674957,285.868744 94.882339,286.090790 
	C100.423584,286.289032 103.698296,283.859436 106.025261,279.109406 
	C113.072861,264.723145 119.891098,250.204880 127.513680,236.125137 
	C135.839111,220.747177 144.937622,205.786636 153.775391,190.688782 
	C154.775085,188.980988 156.267639,187.561707 157.531647,186.008636 
	C158.939438,187.461441 160.782990,188.685318 161.685577,190.403503 
	C168.471130,203.320816 175.008270,216.368805 181.817337,229.273407 
	C182.581741,230.722107 184.557388,231.531693 184.834839,231.748718 
	C188.579422,226.467712 191.255966,221.672485 194.906403,217.793839 
	C199.867615,212.522476 206.821152,212.645706 214.329208,213.083969 
	C204.012192,194.156250 194.231995,175.734711 183.937912,157.604950 
	C180.636383,151.790375 179.644760,146.401932 183.112183,140.726395 
	C188.400833,132.069794 194.016998,123.613922 199.444763,115.041588 
	C209.245392,99.562973 219.034195,84.076744 228.771790,68.558456 
	C231.225388,64.648270 230.696991,59.382477 226.934906,56.618782 
	C221.769043,52.823818 216.332306,49.263409 210.612503,46.399677 
	C206.145615,44.163239 201.365341,44.803043 198.208618,49.361835 
	C195.110336,53.836193 192.214828,58.462147 189.431366,63.141178 
	C181.802551,75.965332 174.342575,88.890205 166.675140,101.690971 
	C164.439713,105.422997 161.731781,108.872017 158.823044,113.050369 
	C154.221436,105.222061 150.039536,98.562805 146.304718,91.661583 
	C137.920425,76.168968 129.826721,60.519283 121.476669,45.007851 
	C117.298798,37.246845 112.818153,29.648832 108.034210,21.363121 
M226.982849,258.195770 
	C220.378815,267.810974 211.012543,269.477386 199.624008,266.818420 
	C202.340607,272.380280 204.314651,277.368927 207.154266,281.803284 
	C208.418503,283.777557 211.335892,285.592590 213.660629,285.812439 
	C219.602005,286.374298 225.748718,286.701019 231.581604,285.729980 
	C234.946747,285.169739 239.915451,282.390839 240.533981,279.758087 
	C241.669174,274.926239 241.070953,269.146881 239.467102,264.339111 
	C237.098083,257.237671 233.104492,250.690918 230.035507,243.804214 
	C228.720139,240.852615 227.005768,239.808090 223.678009,239.901443 
	C213.845505,240.177216 204.000290,240.000000 194.218796,240.000000 
	C194.455795,242.069641 194.572723,244.480804 195.030029,246.825577 
	C196.451096,254.111893 199.656799,258.084656 207.197968,260.661133 
	C212.371765,262.428802 223.063828,259.810272 224.402008,255.543808 
	C225.578186,251.793915 227.132309,253.547821 229.590317,254.103058 
	C228.764816,255.205109 227.939316,256.307159 226.982849,258.195770 
M196.669632,224.869843 
	C195.750687,227.750320 194.831757,230.630783 193.757141,233.999222 
	C201.435379,233.999222 208.680161,234.049591 215.922379,233.935883 
	C216.834320,233.921555 218.175812,233.271851 218.559525,232.526108 
	C220.100922,229.530594 215.883072,220.380173 213.824463,219.312744 
	C208.085037,216.336807 203.623199,217.557739 196.669632,224.869843 
z"/>
<path fill="#FFFFFF" opacity="1.000000" stroke="none" 
	d="
M108.254333,21.670109 
	C112.818153,29.648832 117.298798,37.246845 121.476669,45.007851 
	C129.826721,60.519283 137.920425,76.168968 146.304718,91.661583 
	C150.039536,98.562805 154.221436,105.222061 158.823044,113.050369 
	C161.731781,108.872017 164.439713,105.422997 166.675140,101.690971 
	C174.342575,88.890205 181.802551,75.965332 189.431366,63.141178 
	C192.214828,58.462147 195.110336,53.836193 198.208618,49.361835 
	C201.365341,44.803043 206.145615,44.163239 210.612503,46.399677 
	C216.332306,49.263409 221.769043,52.823818 226.934906,56.618782 
	C230.696991,59.382477 231.225388,64.648270 228.771790,68.558456 
	C219.034195,84.076744 209.245392,99.562973 199.444763,115.041588 
	C194.016998,123.613922 188.400833,132.069794 183.112183,140.726395 
	C179.644760,146.401932 180.636383,151.790375 183.937912,157.604950 
	C194.231995,175.734711 204.012192,194.156250 214.329208,213.083969 
	C206.821152,212.645706 199.867615,212.522476 194.906403,217.793839 
	C191.255966,221.672485 188.579422,226.467712 184.834839,231.748718 
	C184.557388,231.531693 182.581741,230.722107 181.817337,229.273407 
	C175.008270,216.368805 168.471130,203.320816 161.685577,190.403503 
	C160.782990,188.685318 158.939438,187.461441 157.531647,186.008636 
	C156.267639,187.561707 154.775085,188.980988 153.775391,190.688782 
	C144.937622,205.786636 135.839111,220.747177 127.513680,236.125137 
	C119.891098,250.204880 113.072861,264.723145 106.025261,279.109406 
	C103.698296,283.859436 100.423584,286.289032 94.882339,286.090790 
	C88.674957,285.868744 82.614761,285.960663 76.665497,283.367767 
	C70.232101,280.563812 66.908905,275.442780 69.596642,269.057861 
	C73.438118,259.932159 77.547646,250.841599 82.455795,242.258163 
	C94.013275,222.046310 106.092628,202.132446 118.000275,182.121490 
	C122.357727,174.798752 126.471161,167.294189 131.338287,160.320938 
	C136.915680,152.330078 135.518692,140.509430 131.374939,133.717331 
	C121.176483,117.000809 111.515656,99.957108 101.558929,83.092026 
	C93.713150,69.802521 85.721138,56.599396 77.858330,43.319859 
	C76.140648,40.418869 74.563271,37.417217 73.155853,34.354145 
	C70.936584,29.524168 71.576317,24.813084 75.924034,21.763487 
	C81.536316,17.826885 87.403221,13.987374 93.681648,11.343814 
	C99.549599,8.873089 103.792480,12.374946 108.254333,21.670109 
z"/>
<path fill="#FFFFFF" opacity="1.000000" stroke="none" 
	d="
M227.048325,257.802490 
	C227.939316,256.307159 228.764816,255.205109 229.590317,254.103058 
	C227.132309,253.547821 225.578186,251.793915 224.402008,255.543808 
	C223.063828,259.810272 212.371765,262.428802 207.197968,260.661133 
	C199.656799,258.084656 196.451096,254.111893 195.030029,246.825577 
	C194.572723,244.480804 194.455795,242.069641 194.218796,240.000000 
	C204.000290,240.000000 213.845505,240.177216 223.678009,239.901443 
	C227.005768,239.808090 228.720139,240.852615 230.035507,243.804214 
	C233.104492,250.690918 237.098083,257.237671 239.467102,264.339111 
	C241.070953,269.146881 241.669174,274.926239 240.533981,279.758087 
	C239.915451,282.390839 234.946747,285.169739 231.581604,285.729980 
	C225.748718,286.701019 219.602005,286.374298 213.660629,285.812439 
	C211.335892,285.592590 208.418503,283.777557 207.154266,281.803284 
	C204.314651,277.368927 202.340607,272.380280 199.624008,266.818420 
	C211.012543,269.477386 220.378815,267.810974 227.048325,257.802490 
z"/>
<path fill="#FFFFFF" opacity="1.000000" stroke="none" 
	d="
M196.825165,224.530884 
	C203.623199,217.557739 208.085037,216.336807 213.824463,219.312744 
	C215.883072,220.380173 220.100922,229.530594 218.559525,232.526108 
	C218.175812,233.271851 216.834320,233.921555 215.922379,233.935883 
	C208.680161,234.049591 201.435379,233.999222 193.757141,233.999222 
	C194.831757,230.630783 195.750687,227.750320 196.825165,224.530884 
z"/>
</svg>